<svg width="201" height="251" viewBox="0 0 201 251" fill="none" xmlns="http://www.w3.org/2000/svg">
<path d="M100.5 250.468C71.5417 243.176 47.6354 226.562 28.7812 200.624C9.92708 174.687 0.5 145.885 0.5 114.218V37.9681L100.5 0.46814L200.5 37.9681V114.218C200.5 145.885 191.073 174.687 172.219 200.624C153.365 226.562 129.458 243.176 100.5 250.468V250.468M100.5 224.218C122.167 217.343 140.083 203.593 154.25 182.968C168.417 162.343 175.5 139.426 175.5 114.218V55.1556L100.5 27.0306L25.5 55.1556V114.218C25.5 139.426 32.5833 162.343 46.75 182.968C60.9167 203.593 78.8333 217.343 100.5 224.218V224.218M100.5 125.468V125.468V125.468V125.468V125.468V125.468V125.468V125.468V125.468V125.468" fill="white"/>
<path d="M100.5 250.468C71.5417 243.176 47.6354 226.562 28.7812 200.624C9.92708 174.687 0.5 145.885 0.5 114.218V37.9681L100.5 0.46814L200.5 37.9681V114.218C200.5 145.885 191.073 174.687 172.219 200.624C153.365 226.562 129.458 243.176 100.5 250.468V250.468M100.5 224.218C122.167 217.343 140.083 203.593 154.25 182.968C168.417 162.343 175.5 139.426 175.5 114.218V55.1556L100.5 27.0306L25.5 55.1556V114.218C25.5 139.426 32.5833 162.343 46.75 182.968C60.9167 203.593 78.8333 217.343 100.5 224.218V224.218M100.5 125.468V125.468V125.468V125.468V125.468V125.468V125.468V125.468V125.468V125.468" stroke="black" stroke-linejoin="bevel"/>
</svg>
